<svg width="0" height="0">

  <symbol viewBox="0 0 30 30" id="icon-modal-close" xmlns="http://www.w3.org/2000/svg"><path d="M16.6574 15.001L29.6568 2.00155C30.1144 1.54388 30.1144 0.801849 29.6568 0.344233C29.1991 -0.113384 28.4571 -0.113442 27.9995 0.344233L15 13.3437L2.00058 0.344233C1.5429 -0.113442 0.800872 -0.113442 0.343256 0.344233C-0.11436 0.801908 -0.114419 1.54394 0.343256 2.00155L13.3427 15.001L0.343256 28.0004C-0.114419 28.4581 -0.114419 29.2001 0.343256 29.6578C0.572064 29.8866 0.872005 30.0009 1.17195 30.0009C1.47189 30.0009 1.77177 29.8866 2.00064 29.6578L15 16.6583L27.9994 29.6578C28.2282 29.8866 28.5281 30.0009 28.8281 30.0009C29.128 30.0009 29.4279 29.8866 29.6568 29.6578C30.1144 29.2001 30.1144 28.458 29.6568 28.0004L16.6574 15.001Z" fill="black"/></symbol>
  <symbol viewBox="0 0 40 28" id="icon-slider-prev" xmlns="http://www.w3.org/2000/svg"><path d="M0.244141 13.4107L12.7441 0.910664C13.0697 0.585117 13.597 0.585117 13.9225 0.910664C14.248 1.23621 14.248 1.76355 13.9225 2.08902L2.845 13.1665H39.1666C39.6273 13.1665 40 13.5393 40 13.9999C40 14.4605 39.6273 14.8332 39.1666 14.8332H2.845L13.9225 25.9107C14.248 26.2362 14.248 26.7635 13.9225 27.089C13.7598 27.2518 13.5465 27.3332 13.3333 27.3332C13.1201 27.3332 12.9069 27.2518 12.7441 27.089L0.244061 14.589C-0.0814056 14.2636 -0.0814056 13.7362 0.244141 13.4107Z" fill="inherit"/></symbol>
  <symbol viewBox="0 0 40 28" id="icon-slider-next" xmlns="http://www.w3.org/2000/svg"><path d="M39.7559 13.4107L27.2559 0.910664C26.9303 0.585117 26.403 0.585117 26.0775 0.910664C25.752 1.23621 25.752 1.76355 26.0775 2.08902L37.155 13.1665H0.833359C0.372734 13.1665 0 13.5393 0 13.9999C0 14.4605 0.372734 14.8332 0.833359 14.8332H37.155L26.0775 25.9107C25.752 26.2362 25.752 26.7635 26.0775 27.089C26.2402 27.2518 26.4535 27.3332 26.6667 27.3332C26.8799 27.3332 27.0931 27.2518 27.2559 27.089L39.7559 14.589C40.0814 14.2636 40.0814 13.7362 39.7559 13.4107Z" fill="inherit"/></symbol>

  <symbol xmlns="http://www.w3.org/2000/svg"  viewBox="0 0 237 120" id="logo-easy" fill="none"><g fill="#fff">
    <path d="M8.695 95.117v2.109H2.633v-2.109h6.062zm-5.086-9.266v11.375H.867V85.852h2.742zm4.305 4.516v2.039H2.633v-2.039h5.281zm.805-4.516v2.117H2.633v-2.117h6.086zm5.922 2.391l-2.773 8.984H8.922l4.18-11.375h1.867l-.328 2.391zm2.297 8.984l-2.781-8.984-.359-2.391h1.891l4.203 11.375h-2.953zm-.109-4.242v2.117h-5.836v-2.117h5.836zm9.758 1.219a1.37 1.37 0 0 0-.078-.477.99.99 0 0 0-.289-.406c-.141-.125-.344-.25-.609-.375s-.604-.266-1.031-.406l-1.445-.562a6.46 6.46 0 0 1-1.242-.742 3.36 3.36 0 0 1-.867-1c-.213-.385-.32-.833-.32-1.344 0-.49.109-.93.328-1.32a3.01 3.01 0 0 1 .914-1.008c.396-.281.859-.495 1.391-.641s1.112-.227 1.742-.227c.833 0 1.568.146 2.203.438.641.287 1.141.695 1.5 1.227.365.526.547 1.148.547 1.867h-2.726a1.55 1.55 0 0 0-.18-.758 1.22 1.22 0 0 0-.524-.516c-.234-.125-.529-.187-.883-.187-.344 0-.633.052-.867.156s-.411.245-.531.422-.18.362-.18.57c0 .172.047.328.141.469a1.65 1.65 0 0 0 .414.383 4.27 4.27 0 0 0 .656.344l.875.32c.604.193 1.141.409 1.609.648a4.94 4.94 0 0 1 1.195.805c.328.297.576.635.742 1.016.172.38.258.81.258 1.289 0 .51-.099.963-.297 1.359a2.82 2.82 0 0 1-.851 1.008c-.37.271-.812.477-1.328.617s-1.091.211-1.727.211a6.91 6.91 0 0 1-1.727-.219 5.11 5.11 0 0 1-1.531-.687c-.458-.312-.826-.711-1.102-1.195-.271-.489-.406-1.07-.406-1.742h2.75a2.35 2.35 0 0 0 .133.844 1.31 1.31 0 0 0 .391.555c.172.135.383.234.633.297.25.057.537.086.859.086.349 0 .63-.05.844-.148.213-.104.37-.24.469-.406.099-.172.148-.359.148-.562zm6.219-8.352l2.094 4.938 2.1-4.937h2.953l-3.656 7.289v4.086h-2.789v-4.086l-3.664-7.289h2.961zM4.398 116.227H2.023L2.039 115h2.359c.813 0 1.49-.169 2.031-.508s.948-.823 1.219-1.437c.276-.62.414-1.344.414-2.172v-.695c0-.652-.078-1.23-.234-1.735a3.51 3.51 0 0 0-.687-1.289 2.97 2.97 0 0 0-1.109-.805c-.432-.182-.93-.273-1.492-.273H1.977v-1.234H4.54c.745 0 1.424.125 2.039.375a4.37 4.37 0 0 1 1.586 1.07c.448.463.792 1.026 1.031 1.687s.359 1.396.359 2.219v.68c0 .823-.12 1.565-.359 2.226s-.586 1.217-1.039 1.68-.99.82-1.625 1.07-1.341.368-2.133.368zm-1.57-11.375v11.375H1.32v-11.375h1.508zm10.344 2.921v8.454h-1.453v-8.454h1.453zm-1.562-2.242a.87.87 0 0 1 .211-.593c.146-.162.359-.243.641-.243.276 0 .487.081.633.243.151.161.226.359.226.593 0 .224-.075.417-.226.578-.146.157-.357.235-.633.235-.281 0-.495-.078-.641-.235a.85.85 0 0 1-.211-.578zm9.359 2.242h1.312v8.274c0 .745-.151 1.38-.453 1.906s-.724.925-1.266 1.195c-.537.276-1.156.414-1.859.414-.292 0-.635-.046-1.031-.14s-.776-.242-1.156-.461a2.9 2.9 0 0 1-.945-.867l.758-.86c.354.427.724.724 1.109.891.391.167.776.25 1.156.25.458 0 .854-.086 1.187-.258a1.8 1.8 0 0 0 .774-.765c.188-.334.281-.745.281-1.235v-6.484l.133-1.86zm-5.82 4.321v-.164c0-.646.076-1.232.227-1.758.156-.531.378-.987.664-1.367a2.97 2.97 0 0 1 1.055-.875c.411-.209.875-.313 1.391-.313.531 0 .995.094 1.391.281.401.183.74.451 1.016.805a3.94 3.94 0 0 1 .664 1.266c.161.495.273 1.054.336 1.679v.719c-.057.62-.169 1.177-.336 1.672a3.96 3.96 0 0 1-.664 1.266 2.77 2.77 0 0 1-1.016.804c-.401.183-.87.274-1.406.274-.505 0-.964-.107-1.375-.321-.406-.213-.755-.513-1.047-.898s-.516-.838-.672-1.359c-.151-.526-.227-1.097-.227-1.711zm1.445-.164v.164a5.41 5.41 0 0 0 .125 1.187c.088.37.221.696.398.977s.414.502.695.664c.281.156.617.234 1.008.234.479 0 .875-.101 1.188-.304a2.2 2.2 0 0 0 .742-.805 4.65 4.65 0 0 0 .438-1.086v-1.883c-.057-.286-.146-.562-.266-.828a2.56 2.56 0 0 0-.453-.719c-.182-.213-.409-.383-.68-.508s-.589-.187-.953-.187c-.396 0-.737.083-1.023.25-.281.161-.513.385-.695.672-.177.281-.31.609-.398.984a5.42 5.42 0 0 0-.125 1.188zm9.453-4.157v8.454h-1.453v-8.454h1.453zm-1.562-2.242a.87.87 0 0 1 .211-.593c.146-.162.359-.243.641-.243.276 0 .487.081.633.243s.226.359.226.593c0 .224-.075.417-.226.578s-.357.235-.633.235-.495-.078-.641-.235a.85.85 0 0 1-.211-.578zm7.422 2.242v1.11h-4.57v-1.11h4.57zm-3.023-2.054h1.445v8.414c0 .286.044.502.133.648s.203.242.344.289a1.42 1.42 0 0 0 .453.071 2.36 2.36 0 0 0 .375-.032l.305-.062.008 1.18c-.115.036-.266.07-.453.101a3.4 3.4 0 0 1-.664.055 2.26 2.26 0 0 1-.976-.211c-.297-.141-.534-.375-.711-.703-.172-.334-.258-.781-.258-1.344v-8.406zm9.703 9.062v-4.351a1.77 1.77 0 0 0-.203-.868 1.33 1.33 0 0 0-.594-.578c-.266-.136-.594-.203-.984-.203-.365 0-.685.063-.961.188a1.68 1.68 0 0 0-.641.492 1.08 1.08 0 0 0-.227.656h-1.445a1.91 1.91 0 0 1 .234-.898c.156-.297.38-.565.672-.805a3.36 3.36 0 0 1 1.063-.578c.417-.146.88-.219 1.391-.219.615 0 1.156.104 1.625.313a2.43 2.43 0 0 1 1.109.945c.271.417.406.94.406 1.57v3.938a6.14 6.14 0 0 0 .07.898c.052.318.128.591.227.821v.125H38.82c-.073-.167-.13-.388-.172-.665s-.062-.541-.062-.781zm.25-3.679l.016 1.015h-1.461c-.411 0-.779.034-1.102.102-.323.062-.594.159-.812.289a1.37 1.37 0 0 0-.5.492c-.115.193-.172.419-.172.68s.06.508.18.726.3.393.539.524c.245.125.544.187.898.187.443 0 .833-.094 1.172-.281a2.43 2.43 0 0 0 .805-.688c.203-.27.313-.533.328-.789l.617.696c-.037.218-.136.461-.297.726s-.378.521-.648.766a3.5 3.5 0 0 1-.953.601c-.365.157-.776.235-1.234.235-.573 0-1.076-.112-1.508-.336a2.58 2.58 0 0 1-1-.899 2.38 2.38 0 0 1-.352-1.273c0-.453.089-.852.266-1.195a2.31 2.31 0 0 1 .766-.868c.334-.23.734-.411 1.203-.531s.992-.179 1.57-.179h1.68zm5.039-6.875v12h-1.453v-12h1.453zm12.57 9.125c0-.266-.042-.5-.125-.704s-.219-.395-.422-.562-.474-.326-.828-.477c-.349-.151-.792-.304-1.328-.461a12.13 12.13 0 0 1-1.523-.554 5.37 5.37 0 0 1-1.164-.711c-.323-.266-.57-.571-.742-.914a2.6 2.6 0 0 1-.258-1.18 2.77 2.77 0 0 1 .273-1.227 2.88 2.88 0 0 1 .781-.976 3.79 3.79 0 0 1 1.227-.656c.474-.156 1.003-.235 1.586-.235.854 0 1.578.164 2.172.493.599.322 1.055.747 1.367 1.273s.469 1.078.469 1.672h-1.5c0-.427-.091-.805-.273-1.133s-.458-.594-.828-.781c-.37-.193-.838-.289-1.406-.289-.537 0-.979.08-1.328.242s-.609.38-.781.656-.25.591-.25.945a1.45 1.45 0 0 0 .148.657c.104.192.263.372.477.539.219.166.495.32.828.461a10.66 10.66 0 0 0 1.211.406 10.52 10.52 0 0 1 1.672.609c.469.224.854.477 1.156.758a2.59 2.59 0 0 1 .68.945c.151.349.227.745.227 1.188 0 .463-.094.883-.281 1.258s-.456.695-.805.961-.768.471-1.258.617c-.484.14-1.026.211-1.625.211a5.63 5.63 0 0 1-1.555-.219 4.66 4.66 0 0 1-1.383-.656c-.411-.292-.742-.651-.992-1.078-.245-.433-.367-.933-.367-1.5h1.5c0 .39.075.726.227 1.008a2 2 0 0 0 .617.687 2.88 2.88 0 0 0 .898.406c.339.084.69.125 1.055.125.526 0 .971-.073 1.336-.218s.641-.355.828-.626a1.61 1.61 0 0 0 .289-.96zm6.758-5.579v1.11h-4.57v-1.11h4.57zm-3.023-2.054h1.445v8.414c0 .286.044.502.133.648s.203.242.344.289a1.42 1.42 0 0 0 .453.071 2.36 2.36 0 0 0 .375-.032l.305-.062.008 1.18c-.115.036-.266.07-.453.101a3.4 3.4 0 0 1-.664.055 2.26 2.26 0 0 1-.977-.211c-.297-.141-.534-.375-.711-.703-.172-.334-.258-.781-.258-1.344v-8.406zm9.891 8.554v-6.5h1.453v8.454h-1.383l-.07-1.954zm.273-1.781l.602-.015a6.43 6.43 0 0 1-.18 1.562c-.115.474-.302.885-.562 1.234s-.602.623-1.023.821c-.422.192-.935.289-1.539.289a3.42 3.42 0 0 1-1.133-.18 2.27 2.27 0 0 1-.875-.555c-.245-.25-.435-.575-.57-.976s-.195-.883-.195-1.445v-5.454h1.445v5.469c0 .38.042.696.125.946.088.244.206.44.352.585s.318.24.5.297c.188.058.38.086.578.086.615 0 1.102-.117 1.461-.351.359-.24.617-.56.773-.961a3.64 3.64 0 0 0 .242-1.352zm8.711 2.094v-10.359h1.453v12H79.18l-.125-1.641zm-5.687-2.492v-.164c0-.646.078-1.232.234-1.758.161-.531.388-.987.68-1.367a3.06 3.06 0 0 1 1.055-.875c.412-.209.87-.313 1.375-.313.531 0 .995.094 1.391.281s.739.451 1.016.805a3.94 3.94 0 0 1 .664 1.266c.161.495.273 1.054.336 1.679v.719c-.057.62-.169 1.177-.336 1.672a3.94 3.94 0 0 1-.664 1.266c-.276.349-.615.617-1.016.804s-.87.274-1.406.274a2.9 2.9 0 0 1-1.359-.321 3.21 3.21 0 0 1-1.055-.898 4.37 4.37 0 0 1-.68-1.359c-.156-.526-.234-1.097-.234-1.711zm1.453-.164v.164a5.39 5.39 0 0 0 .125 1.187c.089.37.224.696.406.977s.414.502.695.664c.281.156.617.234 1.008.234.479 0 .872-.101 1.18-.304s.563-.472.75-.805.333-.695.438-1.086v-1.883a4.19 4.19 0 0 0-.273-.828c-.114-.271-.266-.51-.453-.719s-.409-.383-.68-.508-.581-.187-.945-.187c-.396 0-.737.083-1.023.25-.281.161-.513.385-.695.672-.182.281-.318.609-.406.984a5.4 5.4 0 0 0-.125 1.188zm9.508-4.157v8.454h-1.453v-8.454h1.453zm-1.562-2.242a.87.87 0 0 1 .211-.593c.146-.162.359-.243.641-.243.276 0 .487.081.633.243s.227.359.227.593c0 .224-.076.417-.227.578-.146.157-.357.235-.633.235-.281 0-.495-.078-.641-.235a.85.85 0 0 1-.211-.578zm3.5 6.563v-.18c0-.609.089-1.174.266-1.695a4.06 4.06 0 0 1 .766-1.367 3.42 3.42 0 0 1 1.211-.907 3.77 3.77 0 0 1 1.594-.328c.594 0 1.128.11 1.602.328a3.4 3.4 0 0 1 1.219.907c.339.385.596.841.773 1.367a5.26 5.26 0 0 1 .266 1.695v.18a5.21 5.21 0 0 1-.266 1.695 4.05 4.05 0 0 1-.773 1.367c-.333.386-.737.688-1.211.906-.469.214-1 .321-1.594.321a3.85 3.85 0 0 1-1.602-.321 3.61 3.61 0 0 1-1.219-.906 4.12 4.12 0 0 1-.766-1.367c-.177-.521-.266-1.086-.266-1.695zm1.445-.18v.18c0 .422.05.82.148 1.195s.247.698.445.984a2.25 2.25 0 0 0 .758.68c.302.162.654.242 1.055.242.396 0 .742-.08 1.039-.242a2.18 2.18 0 0 0 .75-.68c.198-.286.346-.614.445-.984a4.45 4.45 0 0 0 .156-1.195v-.18a4.34 4.34 0 0 0-.156-1.18 3.04 3.04 0 0 0-.453-.992 2.15 2.15 0 0 0-.75-.687c-.297-.167-.646-.25-1.047-.25s-.745.083-1.047.25-.547.396-.75.687a3.14 3.14 0 0 0-.445.992c-.099.37-.148.763-.148 1.18zM34.609 9.274H5.512C2.65 9.274.33 11.594.33 14.456h0c0 2.862 2.32 5.182 5.182 5.182H34.61c2.862 0 5.182-2.32 5.182-5.182s-2.32-5.182-5.182-5.182zm0 49.225H5.512c-2.862 0-5.182 2.32-5.182 5.182h0c0 2.862 2.32 5.182 5.182 5.182H34.61c2.862 0 5.182-2.32 5.182-5.182s-2.32-5.182-5.182-5.182zm43.137-45.598L53.537 61.006c-1.327 2.637-.266 5.852 2.369 7.182a5.34 5.34 0 0 0 7.175-2.367L87.29 17.715c1.327-2.637.266-5.852-2.369-7.182a5.34 5.34 0 0 0-7.174 2.367z"/>
    <path d="M100.326 39.108l-12.93-26.143a5.34 5.34 0 0 0-7.158-2.417h0c-2.644 1.311-3.727 4.519-2.419 7.165l12.93 26.143a5.34 5.34 0 0 0 7.158 2.416h0a5.35 5.35 0 0 0 2.419-7.165zm108.66 24.119l-.006-10.475c-.001-2.951-2.395-5.342-5.346-5.341h0c-2.951.002-5.342 2.395-5.34 5.346l.005 10.475c.002 2.951 2.395 5.342 5.346 5.341h0c2.951-.002 5.343-2.395 5.341-5.346z"/>
    <path d="M208.976 51l-.005-10.475c-.002-2.951-2.396-5.342-5.347-5.34h0c-2.951.002-5.342 2.395-5.34 5.346l.005 10.475c.002 2.951 2.396 5.342 5.347 5.341h0c2.951-.002 5.342-2.395 5.34-5.346z"/>
    <path d="M208.066 42.684l19.003-24.68c1.801-2.339 1.366-5.698-.971-7.502a5.34 5.34 0 0 0-7.493.969l-19.003 24.68c-1.801 2.339-1.367 5.698.97 7.502a5.34 5.34 0 0 0 7.494-.969zM19.731 33.887H5.512c-2.862 0-5.182 2.32-5.182 5.182h0c0 2.862 2.32 5.182 5.182 5.182h14.219c2.862 0 5.182-2.32 5.182-5.182h0c0-2.862-2.32-5.182-5.182-5.182z"/><use xlink:href="#B"/><use xlink:href="#B" x="71.805" y="24.612"/><path d="M149.117 39.063a4.53 4.53 0 0 0-4.528-4.528 4.53 4.53 0 0 0-4.528 4.528v.011a4.53 4.53 0 0 0 4.528 4.528 4.53 4.53 0 0 0 4.528-4.528v-.011z"/><use xlink:href="#B" x="149.433" y="-25.261"/><path d="M152.101 17.675c1.236-1.483 1.144-3.784-.248-5.122-.831-.798-1.713-1.5-2.731-1.819a16 16 0 0 0-6.377-.656c-2.148.214-4.231.86-6.123 1.9a15.99 15.99 0 0 0-4.885 4.152 16 16 0 0 0-2.864 5.736 16.01 16.01 0 0 0-.382 6.4 15.99 15.99 0 0 0 2.162 6.036 16.01 16.01 0 0 0 1.862 2.487c1.316 1.44 3.527 1.282 4.973-.027l.229-.208c.401-.363.697-.827.857-1.344.384-1.239.039-2.688-.543-3.848L137.83 31l-.325-.71c-.788-1.844-1.693-3.852-1.175-5.79l.081-.294c.517-1.819 1.262-3.795 2.919-4.706 1.038-.571 2.236-1.075 3.415-1.192s2.955-.162 4.085.192c.465.146.938.182 1.396.227 1.13.112 2.457.123 3.37-.553a2.46 2.46 0 0 0 .421-.398l.084-.1zM138.56 61.329c-1.236 1.483-1.144 3.784.248 5.122.83.798 1.713 1.5 2.73 1.819a15.99 15.99 0 0 0 6.377.656c2.148-.214 4.231-.86 6.123-1.9s3.554-2.452 4.886-4.151a16 16 0 0 0 2.863-5.736 15.99 15.99 0 0 0-1.779-12.436c-.54-.89-1.164-1.723-1.862-2.487-1.316-1.44-3.527-1.282-4.973.027l-.229.208a3 3 0 0 0-.857 1.344c-.384 1.239-.039 2.688.543 3.848l.201.363.325.71c.788 1.844 1.693 3.852 1.174 5.79l-.081.294c-.517 1.819-1.261 3.795-2.919 4.706-1.038.571-2.236 1.075-3.414 1.192s-2.956.162-4.086-.193c-.465-.146-.938-.182-1.396-.227-1.13-.112-2.457-.123-3.369.553a2.46 2.46 0 0 0-.422.398l-.083.1z"/></g><defs ><path id="B" d="M34.616 33.887h0c-2.858 0-5.175 2.317-5.175 5.175v.013c0 2.858 2.317 5.175 5.175 5.175h0c2.858 0 5.175-2.317 5.175-5.175v-.013c0-2.858-2.317-5.175-5.175-5.175z"/></defs>
  </symbol>

  <symbol xmlns="http://www.w3.org/2000/svg" viewBox="0 0 40 40" id="icon-mobile-menu" fill="#fff"><path d="M38.438 18.438H1.563C.7 18.438 0 19.137 0 20s.7 1.563 1.563 1.563h36.875c.863 0 1.563-.7 1.563-1.562s-.7-1.562-1.562-1.562zm0-12.5H1.563C.7 5.938 0 6.637 0 7.5s.7 1.563 1.563 1.563h36.875c.863 0 1.563-.7 1.563-1.562s-.7-1.562-1.562-1.562zm0 25H1.563C.7 30.938 0 31.637 0 32.5s.7 1.563 1.563 1.563h36.875c.863 0 1.563-.7 1.563-1.562s-.7-1.562-1.562-1.562z"/></symbol>
  <symbol xmlns="http://www.w3.org/2000/svg" viewBox="0 0 50 50" id="icon-mobile-close" fill="#fff"><path d="M9.156 6.313L6.313 9.156 22.156 25 6.219 40.969l2.813 2.813L25 27.844l15.938 15.938 2.844-2.844L27.844 25 43.688 9.156l-2.844-2.844L25 22.156z"/></symbol>
</svg>