<svg width="96" height="96" viewBox="0 0 96 96" fill="none" xmlns="http://www.w3.org/2000/svg">
<path d="M16 0C7.164 0 0 7.164 0 16V80C0 88.836 7.164 96 16 96H80C88.836 96 96 88.836 96 80V16C96 7.164 88.836 0 80 0H16ZM26.3984 12L30.8047 12.0039L33.6523 25.7109H33.9297L36.6367 12.0039H41.0898L36 30.9453V40.8008H31.625L31.6172 31.4766L26.3984 12ZM46.9453 18.8984C48.5653 18.8984 49.8821 19.4002 50.9141 20.4102C51.9441 21.4142 52.4648 22.7167 52.4648 24.3047L52.4727 35.0664C52.4727 36.8464 51.9709 38.2514 50.9609 39.2734C49.9509 40.2914 48.5632 40.7969 46.7852 40.7969C45.0712 40.7969 43.7098 40.2667 42.6758 39.2227C41.6478 38.1787 41.1387 36.768 41.1367 35L41.1289 24.1914L41.1328 24.1953C41.1328 22.5833 41.6609 21.2958 42.7109 20.3438C43.7589 19.3857 45.1693 18.9004 46.9453 18.8984ZM55.8633 19.1992H59.8281L59.8398 35.5781C59.8398 36.0681 59.9258 36.4303 60.0938 36.6562C60.2518 36.8723 60.5344 36.9922 60.8984 36.9922C61.1964 36.9922 61.5679 36.8449 62.0039 36.5469C62.4559 36.2549 62.8625 35.874 63.2305 35.418L63.2266 19.1992H67.1992V40.8008H63.7812L63.2344 38.1602C62.5024 39.0202 61.7452 39.6732 60.9492 40.1172C60.1612 40.5632 59.3924 40.8008 58.6484 40.8008C57.7264 40.8008 57.0383 40.4855 56.5703 39.8555C56.1023 39.2335 55.8711 38.2932 55.8711 37.0352L55.8633 19.1992ZM46.7656 22.5117C46.2876 22.5117 45.8977 22.6556 45.5977 22.9336C45.2997 23.2136 45.1523 23.5832 45.1523 24.0352L45.1562 35.3906C45.1562 35.9546 45.2939 36.4067 45.5859 36.7188C45.8619 37.0267 46.2554 37.1836 46.7734 37.1836C47.3034 37.1836 47.7192 37.0232 48.0312 36.6992C48.3413 36.3892 48.5 35.9447 48.5 35.3867L48.4922 24.0352C48.4922 23.5832 48.3277 23.2156 48.0117 22.9336C47.6977 22.6556 47.2796 22.5117 46.7656 22.5117ZM48 46C48 46 68.937 46.0008 73.543 47.1328C76.085 47.7568 78.0895 49.5996 78.7695 51.9336C80.0015 56.1696 80 65 80 65C80 65 79.9996 73.8305 78.7656 78.0625C78.0856 80.4005 76.085 82.2393 73.543 82.8633C68.937 83.9993 48 84 48 84C48 84 27.063 83.9992 22.457 82.8672C19.915 82.2432 17.9105 80.4004 17.2305 78.0664C15.9985 73.8304 16 65 16 65C16 65 16.0004 56.1695 17.2344 51.9375C17.9144 49.6015 19.915 47.7607 22.457 47.1367C27.061 46.0007 48 46 48 46ZM21.6016 50.3984V54.3711H25.6016V79.1992H29.6016V54.3711H33.6016V50.3984H21.6016ZM48 50.3984V79.1992H51.6016L52 76.7188C53.26 78.2667 54.9003 79.1992 56.2383 79.1992C57.7583 79.1992 59.0586 78.4055 59.5586 76.8555C59.7986 76.0195 59.9761 75.2461 59.9961 73.4961V63.0703C59.9981 61.1043 59.7405 59.6173 59.4805 58.7812C58.9805 57.2313 57.7583 56.3775 56.2383 56.3555C54.2983 56.3355 53.5 57.3517 52 59.0977V50.3984H48ZM33.6016 56.3984V74.6211C33.6016 76.0491 33.7986 77.0008 34.0586 77.6328C34.4986 78.6468 35.3997 79.1992 36.6797 79.1992C38.1417 79.1992 40.0216 78.1904 41.6016 76.4844L42 79.1992H45.6016V56.3984H41.6016V73.7852C40.7216 74.9372 39.4406 75.8086 38.6406 75.8086C38.1206 75.8086 37.7016 75.5916 37.6016 75.0156V56.3984H33.6016ZM68.4609 56.4023C66.4409 56.4023 64.8783 57.0366 63.7383 58.2266C62.8783 59.0986 62.3984 60.5266 62.3984 62.3906V73.4141C62.3984 75.2581 62.9413 76.5679 63.7812 77.4219C64.9212 78.6099 66.4786 79.2031 68.5586 79.2031C70.6186 79.2031 72.2403 78.5903 73.3203 77.3203C73.8003 76.7663 74.1217 76.1315 74.2617 75.4375C74.2817 75.1215 74.3984 74.2698 74.3984 73.2578H70.3984V74.8438C70.3984 75.7558 69.4984 76.5078 68.3984 76.5078C67.2984 76.5078 66.3984 75.7558 66.3984 74.8438V68.793H74.3984V62.3086C74.3984 60.4446 73.9411 59.0986 73.1211 58.2266C72.0211 57.0366 70.4409 56.4023 68.4609 56.4023ZM68.3984 59.2734C69.4984 59.2734 70.3984 60.0094 70.3984 60.9414V66.0352H66.3984V60.9414C66.3984 60.0094 67.2984 59.2734 68.3984 59.2734ZM54.4414 59.8359C55.5214 59.8359 56 60.4902 56 62.5742V72.9844C56 75.0704 55.5214 75.7852 54.4414 75.7852C53.8214 75.7852 52.64 75.3665 52 74.7305V61.0859C52.64 60.4499 53.8214 59.8359 54.4414 59.8359Z" fill="white"/>
</svg>
